<svg xmlns="http://www.w3.org/2000/svg" viewBox="0 0 1440 320"><path fill="rgb(255, 255, 243)" fill-opacity="1" d="M0,320L26.7,304C53.3,288,107,256,160,213.3C213.3,171,267,117,320,96C373.3,75,427,85,480,101.3C533.3,117,587,139,640,144C693.3,149,747,139,800,144C853.3,149,907,171,960,176C1013.3,181,1067,171,1120,181.3C1173.3,192,1227,224,1280,229.3C1333.3,235,1387,213,1413,202.7L1440,192L1440,0L1413.3,0C1386.7,0,1333,0,1280,0C1226.7,0,1173,0,1120,0C1066.7,0,1013,0,960,0C906.7,0,853,0,800,0C746.7,0,693,0,640,0C586.7,0,533,0,480,0C426.7,0,373,0,320,0C266.7,0,213,0,160,0C106.7,0,53,0,27,0L0,0Z"></path></svg>